<svg width="399" height="75" viewBox="0 0 399 75" fill="none" xmlns="http://www.w3.org/2000/svg">
<path d="M119.584 27.568L113.888 56.24C112.608 62.7253 110.133 67.4613 106.464 70.448C102.837 73.4347 97.9733 74.928 91.872 74.928C88.544 74.928 85.472 74.544 82.656 73.776C79.8827 73.008 77.4933 71.8773 75.488 70.384L80.224 63.152C81.5893 64.304 83.3387 65.2 85.472 65.84C87.648 66.5227 89.9307 66.864 92.32 66.864C95.6907 66.864 98.2507 66.1173 100 64.624C101.749 63.1733 102.944 60.9547 103.584 57.968L103.84 56.496C101.067 59.056 97.568 60.336 93.344 60.336C90.4853 60.336 87.904 59.76 85.6 58.608C83.296 57.4133 81.4613 55.728 80.096 53.552C78.7733 51.376 78.112 48.816 78.112 45.872C78.112 42.3733 78.944 39.1947 80.608 36.336C82.272 33.4773 84.5547 31.216 87.456 29.552C90.4 27.888 93.6853 27.056 97.312 27.056C100 27.056 102.347 27.568 104.352 28.592C106.4 29.5733 107.936 31.1093 108.96 33.2L110.048 27.568H119.584ZM96.032 52.144C98.9333 52.144 101.323 51.2053 103.2 49.328C105.077 47.4507 106.016 45.04 106.016 42.096C106.016 40.0053 105.333 38.3627 103.968 37.168C102.603 35.9307 100.704 35.312 98.272 35.312C95.328 35.312 92.896 36.2507 90.976 38.128C89.0987 40.0053 88.16 42.416 88.16 45.36C88.16 47.4507 88.864 49.1147 90.272 50.352C91.68 51.5467 93.6 52.144 96.032 52.144ZM128.877 27.568H138.797L131.949 62H122.029L128.877 27.568ZM135.533 22.768C133.826 22.768 132.418 22.2773 131.309 21.296C130.242 20.272 129.709 19.0347 129.709 17.584C129.709 15.8773 130.306 14.4693 131.501 13.36C132.738 12.208 134.338 11.632 136.301 11.632C138.05 11.632 139.458 12.1227 140.525 13.104C141.634 14.0427 142.189 15.216 142.189 16.624C142.189 18.4587 141.57 19.952 140.333 21.104C139.095 22.2133 137.495 22.768 135.533 22.768ZM154.784 49.84C154.699 50.1813 154.656 50.6507 154.656 51.248C154.656 53.4667 155.872 54.576 158.304 54.576C159.627 54.576 160.971 54.1707 162.336 53.36L163.808 60.464C161.589 61.8293 158.731 62.512 155.232 62.512C151.989 62.512 149.387 61.6587 147.424 59.952C145.461 58.2453 144.48 55.8987 144.48 52.912C144.48 52.0587 144.587 51.056 144.8 49.904L147.552 36.016H142.24L143.776 28.336H149.088L150.752 19.952H160.736L159.072 28.336H167.648L166.112 36.016H157.536L154.784 49.84ZM213.33 27.056C216.018 27.056 218.492 27.6747 220.754 28.912C223.058 30.1493 224.871 31.9413 226.194 34.288C227.559 36.592 228.242 39.3227 228.242 42.48C228.242 46.2773 227.388 49.712 225.682 52.784C224.018 55.8133 221.735 58.2027 218.833 59.952C215.932 61.6587 212.711 62.512 209.17 62.512C203.922 62.512 200.21 60.8053 198.034 57.392L194.642 74.416H184.657L194.002 27.568H203.474L202.77 30.96C205.628 28.3573 209.148 27.056 213.33 27.056ZM208.018 54.256C209.98 54.256 211.73 53.7867 213.266 52.848C214.802 51.8667 215.996 50.5227 216.85 48.816C217.703 47.1093 218.13 45.1467 218.13 42.928C218.13 40.5813 217.426 38.7253 216.018 37.36C214.652 35.9947 212.732 35.312 210.258 35.312C208.338 35.312 206.61 35.8027 205.074 36.784C203.538 37.7227 202.343 39.0453 201.49 40.752C200.636 42.4587 200.21 44.4213 200.21 46.64C200.21 48.9867 200.892 50.8427 202.258 52.208C203.623 53.5733 205.543 54.256 208.018 54.256ZM258.221 27.056C262.061 27.056 265.112 28.08 267.373 30.128C269.634 32.176 270.765 35.0773 270.765 38.832C270.765 40.1973 270.616 41.5627 270.317 42.928L266.477 62H256.493L260.205 43.568C260.376 42.8427 260.461 42.0533 260.461 41.2C260.461 39.408 259.97 38.0427 258.989 37.104C258.008 36.1653 256.536 35.696 254.573 35.696C252.013 35.696 249.88 36.4427 248.173 37.936C246.509 39.3867 245.378 41.584 244.781 44.528L241.325 62H231.341L240.813 14.512H250.797L247.597 30.704C250.541 28.272 254.082 27.056 258.221 27.056ZM285.063 14.512H295.047L285.575 62H275.591L285.063 14.512ZM312.825 62.512C309.369 62.512 306.318 61.872 303.673 60.592C301.07 59.312 299.044 57.52 297.593 55.216C296.185 52.8693 295.481 50.16 295.481 47.088C295.481 43.2907 296.377 39.8773 298.169 36.848C299.961 33.8187 302.436 31.4293 305.593 29.68C308.75 27.9307 312.313 27.056 316.281 27.056C319.78 27.056 322.83 27.696 325.433 28.976C328.036 30.256 330.041 32.0693 331.449 34.416C332.9 36.72 333.625 39.408 333.625 42.48C333.625 46.2773 332.729 49.6907 330.937 52.72C329.188 55.7493 326.713 58.1387 323.513 59.888C320.356 61.6373 316.793 62.512 312.825 62.512ZM313.465 54.256C315.385 54.256 317.113 53.7867 318.649 52.848C320.185 51.8667 321.38 50.5227 322.233 48.816C323.086 47.1093 323.513 45.1467 323.513 42.928C323.513 40.5813 322.83 38.7253 321.465 37.36C320.1 35.9947 318.18 35.312 315.705 35.312C313.742 35.312 311.993 35.8027 310.457 36.784C308.921 37.7227 307.726 39.0453 306.873 40.752C306.02 42.4587 305.593 44.4213 305.593 46.64C305.593 48.9867 306.276 50.8427 307.641 52.208C309.049 53.5733 310.99 54.256 313.465 54.256ZM398.371 27.568L379.363 62H369.507L365.539 40.56L353.699 62H343.97L337.891 27.568H346.979L350.755 50.736L363.683 27.568H372.259L376.163 50.736L388.963 27.568H398.371Z" fill="#615EFF"/>
<path d="M59.5 35L17 35L18 27L64 27L59.5 35Z" fill="#615EFF"/>
<path d="M60 61.9643L15 61.9643L16 54L55.5 54L60 61.9643Z" fill="#615EFF"/>
<path d="M45 47.9643L0 47.9643L1 40L45 40L45 47.9643Z" fill="#615EFF"/>
</svg>
